<?xml version="1.0" encoding="UTF-8"?>
<svg xmlns="http://www.w3.org/2000/svg" viewBox="0 0 304 304">
  <path d="M 149 167 L 148 168 L 147 168 L 146 169 L 145 170 L 144 171 L 143 172 L 142 173 L 141 174 L 140 175 L 139 176 L 138 177 L 137 178 L 136 179 L 135 180 L 134 181 L 133 182 L 132 183 L 131 184 L 130 185 L 129 186 L 128 187 L 127 188 L 126 189 L 125 190 L 124 191 L 123 192 L 122 193 L 121 194 L 120 195 L 119 196 L 118 197 L 117 198 L 116 199 L 115 200 L 114 201 L 113 202 L 112 203 L 111 204 L 110 205 L 109 206 L 108 207 L 107 208 L 106 209 L 105 210 L 104 211 L 103 212 L 102 213 L 101 214 L 100 215 L 99 216 L 98 217 L 97 218 L 96 219 L 95 220 L 94 221 L 93 222 L 92 223 L 91 224 L 90 225 L 89 226 L 88 227 L 87 228 L 86 229 L 85 230 L 84 231 L 84 232 L 84 233 L 84 234 L 84 235 L 84 236 L 84 237 L 84 238 L 84 239 L 84 240 L 84 241 L 84 242 L 84 243 L 84 244 L 84 245 L 84 246 L 84 247 L 84 248 L 84 249 L 84 250 L 84 251 L 84 252 L 84 253 L 84 254 L 84 255 L 84 256 L 84 257 L 84 258 L 84 259 L 84 260 L 84 261 L 84 262 L 84 263 L 84 264 L 84 265 L 84 266 L 84 267 L 84 268 L 84 269 L 84 270 L 84 271 L 84 272 L 84 273 L 84 274 L 85 275 L 86 276 L 87 277 L 88 278 L 89 279 L 90 280 L 91 281 L 92 282 L 93 283 L 94 284 L 95 285 L 96 286 L 97 287 L 98 288 L 99 289 L 100 290 L 101 291 L 102 292 L 103 293 L 104 294 L 105 295 L 106 296 L 107 297 L 108 298 L 109 299 L 109 300 L 110 300 L 111 301 L 112 302 L 113 302 L 114 302 L 115 302 L 116 302 L 117 302 L 118 302 L 119 302 L 120 302 L 121 302 L 122 302 L 123 302 L 124 302 L 125 302 L 126 302 L 127 302 L 128 302 L 129 302 L 130 302 L 131 302 L 132 302 L 133 302 L 134 302 L 135 302 L 136 302 L 137 302 L 138 302 L 139 302 L 140 302 L 141 302 L 142 302 L 143 302 L 144 302 L 145 302 L 146 302 L 147 302 L 148 302 L 149 302 L 150 302 L 151 302 L 152 302 L 153 302 L 154 302 L 155 302 L 156 302 L 157 302 L 158 302 L 159 302 L 160 302 L 161 302 L 162 302 L 163 302 L 164 302 L 165 302 L 166 302 L 167 302 L 168 302 L 169 302 L 170 302 L 171 302 L 172 302 L 173 302 L 174 302 L 175 302 L 176 302 L 177 302 L 178 302 L 179 302 L 180 302 L 181 302 L 182 302 L 183 302 L 184 302 L 185 302 L 186 302 L 187 302 L 188 302 L 189 302 L 190 302 L 191 302 L 192 301 L 193 300 L 194 300 L 194 299 L 195 298 L 196 297 L 197 297 L 197 296 L 198 295 L 199 294 L 200 293 L 201 292 L 202 291 L 203 290 L 204 289 L 205 289 L 205 288 L 206 287 L 207 286 L 208 286 L 208 285 L 209 284 L 210 283 L 211 282 L 212 281 L 213 281 L 213 280 L 214 279 L 215 278 L 216 278 L 216 277 L 217 276 L 218 275 L 219 274 L 219 273 L 219 272 L 219 271 L 219 270 L 219 269 L 219 268 L 219 267 L 219 266 L 219 265 L 219 264 L 219 263 L 219 262 L 219 261 L 219 260 L 219 259 L 219 258 L 219 257 L 219 256 L 219 255 L 219 254 L 219 253 L 219 252 L 219 251 L 219 250 L 219 249 L 219 248 L 219 247 L 219 246 L 219 245 L 219 244 L 219 243 L 219 242 L 219 241 L 219 240 L 219 239 L 219 238 L 219 237 L 219 236 L 219 235 L 219 234 L 219 233 L 219 232 L 219 231 L 218 230 L 217 229 L 216 228 L 215 227 L 214 226 L 213 225 L 212 224 L 211 223 L 210 222 L 209 221 L 208 220 L 207 219 L 206 218 L 205 217 L 204 216 L 203 215 L 202 214 L 201 213 L 200 212 L 199 211 L 198 210 L 197 209 L 196 208 L 195 207 L 194 206 L 193 205 L 192 204 L 191 203 L 190 202 L 189 201 L 188 200 L 187 199 L 186 198 L 185 197 L 184 196 L 183 195 L 182 194 L 181 193 L 180 192 L 179 191 L 178 190 L 177 189 L 176 188 L 175 187 L 174 186 L 173 185 L 172 184 L 171 183 L 170 182 L 169 181 L 168 180 L 167 179 L 166 178 L 165 177 L 164 176 L 163 175 L 162 174 L 161 173 L 160 172 L 159 171 L 158 170 L 157 169 L 156 168 L 155 168 L 154 167 L 153 167 L 152 167 L 151 167 L 150 167 Z M 150 190 L 151 189 L 152 189 L 153 190 L 154 191 L 155 192 L 156 193 L 157 194 L 158 195 L 159 196 L 160 197 L 161 198 L 162 199 L 163 200 L 164 201 L 165 202 L 166 203 L 167 204 L 168 205 L 169 206 L 170 207 L 171 208 L 172 209 L 173 210 L 174 211 L 175 212 L 176 213 L 177 214 L 178 215 L 179 216 L 180 217 L 181 218 L 182 219 L 183 220 L 184 221 L 185 222 L 186 223 L 187 224 L 188 225 L 189 226 L 190 227 L 191 228 L 192 229 L 193 230 L 194 231 L 195 232 L 196 233 L 197 234 L 198 235 L 199 236 L 200 237 L 201 238 L 201 239 L 201 240 L 201 241 L 201 242 L 201 243 L 201 244 L 201 245 L 201 246 L 201 247 L 201 248 L 201 249 L 201 250 L 201 251 L 201 252 L 201 253 L 201 254 L 201 255 L 201 256 L 201 257 L 201 258 L 201 259 L 201 260 L 201 261 L 201 262 L 201 263 L 201 264 L 201 265 L 201 266 L 201 267 L 200 268 L 199 269 L 198 270 L 197 271 L 196 272 L 195 273 L 194 274 L 193 275 L 192 276 L 191 277 L 190 278 L 190 279 L 189 280 L 188 280 L 187 281 L 186 282 L 185 283 L 185 284 L 184 285 L 183 285 L 182 285 L 181 285 L 180 285 L 179 285 L 178 285 L 177 285 L 176 285 L 175 285 L 174 285 L 173 285 L 172 285 L 171 285 L 170 285 L 169 285 L 168 285 L 167 285 L 166 285 L 165 285 L 164 285 L 163 285 L 162 285 L 161 285 L 160 285 L 159 285 L 158 285 L 157 285 L 156 285 L 155 285 L 154 285 L 153 285 L 152 285 L 151 285 L 150 285 L 149 285 L 148 285 L 147 285 L 146 285 L 145 285 L 144 285 L 143 285 L 142 285 L 141 285 L 140 285 L 139 285 L 138 285 L 137 285 L 136 285 L 135 285 L 134 285 L 133 285 L 132 285 L 131 285 L 130 285 L 129 285 L 128 285 L 127 285 L 126 285 L 125 285 L 124 285 L 123 285 L 122 285 L 121 285 L 120 285 L 119 285 L 118 284 L 118 283 L 117 283 L 116 282 L 116 281 L 115 280 L 114 280 L 113 279 L 113 278 L 112 277 L 111 276 L 110 275 L 109 274 L 108 273 L 107 272 L 106 272 L 105 271 L 105 270 L 104 269 L 103 268 L 102 267 L 102 266 L 102 265 L 102 264 L 102 263 L 102 262 L 102 261 L 102 260 L 102 259 L 102 258 L 102 257 L 102 256 L 102 255 L 102 254 L 102 253 L 102 252 L 102 251 L 102 250 L 102 249 L 102 248 L 102 247 L 102 246 L 102 245 L 102 244 L 102 243 L 102 242 L 102 241 L 102 240 L 102 239 L 102 238 L 103 237 L 104 236 L 105 235 L 106 234 L 107 233 L 108 232 L 109 231 L 110 230 L 111 229 L 112 228 L 113 227 L 114 226 L 115 225 L 116 224 L 117 223 L 118 222 L 119 221 L 120 220 L 121 219 L 122 218 L 123 217 L 124 216 L 125 215 L 126 214 L 127 213 L 128 212 L 129 211 L 130 210 L 131 209 L 132 208 L 133 207 L 134 206 L 135 205 L 136 204 L 137 203 L 138 202 L 139 201 L 140 200 L 141 199 L 142 198 L 143 197 L 144 196 L 145 195 L 146 194 L 147 193 L 148 192 L 149 191 Z M 231 84 L 230 85 L 229 86 L 228 87 L 227 88 L 226 89 L 225 90 L 224 91 L 223 92 L 222 93 L 221 94 L 220 95 L 219 96 L 218 97 L 217 98 L 216 99 L 215 100 L 214 101 L 213 102 L 212 103 L 211 104 L 210 105 L 209 106 L 208 107 L 207 108 L 206 109 L 205 110 L 204 111 L 203 112 L 202 113 L 201 114 L 200 115 L 199 116 L 198 117 L 197 118 L 196 119 L 195 120 L 194 121 L 193 122 L 192 123 L 191 124 L 190 125 L 189 126 L 188 127 L 187 128 L 186 129 L 185 130 L 184 131 L 183 132 L 182 133 L 181 134 L 180 135 L 179 136 L 178 137 L 177 138 L 176 139 L 175 140 L 174 141 L 173 142 L 172 143 L 171 144 L 170 145 L 169 146 L 168 147 L 167 148 L 167 149 L 167 150 L 167 151 L 167 152 L 167 153 L 167 154 L 168 155 L 168 156 L 169 157 L 170 158 L 171 159 L 172 160 L 173 161 L 174 162 L 175 163 L 176 164 L 177 165 L 178 166 L 179 167 L 180 168 L 181 169 L 182 170 L 183 171 L 184 172 L 185 173 L 186 174 L 187 175 L 188 176 L 189 177 L 190 178 L 191 179 L 192 180 L 193 181 L 194 182 L 195 183 L 196 184 L 197 185 L 198 186 L 199 187 L 200 188 L 201 189 L 202 190 L 203 191 L 204 192 L 205 193 L 206 194 L 207 195 L 208 196 L 209 197 L 210 198 L 211 199 L 212 200 L 213 201 L 214 202 L 215 203 L 216 204 L 217 205 L 218 206 L 219 207 L 220 208 L 221 209 L 222 210 L 223 211 L 224 212 L 225 213 L 226 214 L 227 215 L 228 216 L 229 217 L 230 218 L 231 219 L 232 219 L 233 219 L 234 219 L 235 219 L 236 219 L 237 219 L 238 219 L 239 219 L 240 219 L 241 219 L 242 219 L 243 219 L 244 219 L 245 219 L 246 219 L 247 219 L 248 219 L 249 219 L 250 219 L 251 219 L 252 219 L 253 219 L 254 219 L 255 219 L 256 219 L 257 219 L 258 219 L 259 219 L 260 219 L 261 219 L 262 219 L 263 219 L 264 219 L 265 219 L 266 219 L 267 219 L 268 219 L 269 219 L 270 219 L 271 219 L 272 219 L 273 219 L 274 219 L 275 218 L 276 217 L 277 216 L 278 216 L 278 215 L 279 214 L 280 213 L 281 212 L 282 211 L 283 210 L 284 209 L 285 208 L 286 207 L 287 206 L 288 205 L 289 204 L 290 203 L 291 202 L 292 201 L 293 200 L 294 199 L 295 198 L 296 197 L 297 197 L 297 196 L 298 195 L 299 194 L 300 193 L 301 192 L 302 191 L 302 190 L 302 189 L 302 188 L 302 187 L 302 186 L 302 185 L 302 184 L 302 183 L 302 182 L 302 181 L 302 180 L 302 179 L 302 178 L 302 177 L 302 176 L 302 175 L 302 174 L 302 173 L 302 172 L 302 171 L 302 170 L 302 169 L 302 168 L 302 167 L 302 166 L 302 165 L 302 164 L 302 163 L 302 162 L 302 161 L 302 160 L 302 159 L 302 158 L 302 157 L 302 156 L 302 155 L 302 154 L 302 153 L 302 152 L 302 151 L 302 150 L 302 149 L 302 148 L 302 147 L 302 146 L 302 145 L 302 144 L 302 143 L 302 142 L 302 141 L 302 140 L 302 139 L 302 138 L 302 137 L 302 136 L 302 135 L 302 134 L 302 133 L 302 132 L 302 131 L 302 130 L 302 129 L 302 128 L 302 127 L 302 126 L 302 125 L 302 124 L 302 123 L 302 122 L 302 121 L 302 120 L 302 119 L 302 118 L 302 117 L 302 116 L 302 115 L 302 114 L 302 113 L 302 112 L 301 111 L 300 110 L 299 109 L 298 108 L 297 107 L 296 106 L 295 105 L 294 104 L 293 103 L 292 102 L 291 101 L 290 100 L 289 99 L 288 98 L 287 97 L 286 96 L 285 95 L 284 94 L 283 93 L 282 92 L 281 91 L 280 90 L 279 89 L 278 88 L 277 87 L 276 86 L 275 85 L 274 84 L 273 84 L 272 84 L 271 84 L 270 84 L 269 84 L 268 84 L 267 84 L 266 84 L 265 84 L 264 84 L 263 84 L 262 84 L 261 84 L 260 84 L 259 84 L 258 84 L 257 84 L 256 84 L 255 84 L 254 84 L 253 84 L 252 84 L 251 84 L 250 84 L 249 84 L 248 84 L 247 84 L 246 84 L 245 84 L 244 84 L 243 84 L 242 84 L 241 84 L 240 84 L 239 84 L 238 84 L 237 84 L 236 84 L 235 84 L 234 84 L 233 84 L 232 84 Z M 237 103 L 238 102 L 239 102 L 240 102 L 241 102 L 242 102 L 243 102 L 244 102 L 245 102 L 246 102 L 247 102 L 248 102 L 249 102 L 250 102 L 251 102 L 252 102 L 253 102 L 254 102 L 255 102 L 256 102 L 257 102 L 258 102 L 259 102 L 260 102 L 261 102 L 262 102 L 263 102 L 264 102 L 265 102 L 266 102 L 267 102 L 268 102 L 269 103 L 269 104 L 270 105 L 271 105 L 272 106 L 272 107 L 273 108 L 274 108 L 275 109 L 275 110 L 276 110 L 277 111 L 277 112 L 278 113 L 279 114 L 280 115 L 281 116 L 282 116 L 283 117 L 283 118 L 284 118 L 285 119 L 285 120 L 285 121 L 285 122 L 285 123 L 285 124 L 285 125 L 285 126 L 285 127 L 285 128 L 285 129 L 285 130 L 285 131 L 285 132 L 285 133 L 285 134 L 285 135 L 285 136 L 285 137 L 285 138 L 285 139 L 285 140 L 285 141 L 285 142 L 285 143 L 285 144 L 285 145 L 285 146 L 285 147 L 285 148 L 285 149 L 285 150 L 285 151 L 285 152 L 285 153 L 285 154 L 285 155 L 285 156 L 285 157 L 285 158 L 285 159 L 285 160 L 285 161 L 285 162 L 285 163 L 285 164 L 285 165 L 285 166 L 285 167 L 285 168 L 285 169 L 285 170 L 285 171 L 285 172 L 285 173 L 285 174 L 285 175 L 285 176 L 285 177 L 285 178 L 285 179 L 285 180 L 285 181 L 285 182 L 285 183 L 285 184 L 284 185 L 283 185 L 283 186 L 282 187 L 281 188 L 280 188 L 279 189 L 278 190 L 277 191 L 276 192 L 275 193 L 274 194 L 273 195 L 272 196 L 272 197 L 271 198 L 270 198 L 269 199 L 268 200 L 267 201 L 266 201 L 265 201 L 264 201 L 263 201 L 262 201 L 261 201 L 260 201 L 259 201 L 258 201 L 257 201 L 256 201 L 255 201 L 254 201 L 253 201 L 252 201 L 251 201 L 250 201 L 249 201 L 248 201 L 247 201 L 246 201 L 245 201 L 244 201 L 243 201 L 242 201 L 241 201 L 240 201 L 239 201 L 238 201 L 237 200 L 236 199 L 235 198 L 234 197 L 233 196 L 232 195 L 231 194 L 230 193 L 229 192 L 228 191 L 227 190 L 226 189 L 225 188 L 224 187 L 223 186 L 222 185 L 221 184 L 220 183 L 219 182 L 218 181 L 217 180 L 216 179 L 215 178 L 214 177 L 213 176 L 212 175 L 211 174 L 210 173 L 209 172 L 208 171 L 207 170 L 206 169 L 205 168 L 204 167 L 203 166 L 202 165 L 201 164 L 200 163 L 199 162 L 198 161 L 197 160 L 196 159 L 195 158 L 194 157 L 193 156 L 192 155 L 191 154 L 190 153 L 189 152 L 189 151 L 190 150 L 191 149 L 192 148 L 193 147 L 194 146 L 195 145 L 196 144 L 197 143 L 198 142 L 199 141 L 200 140 L 201 139 L 202 138 L 203 137 L 204 136 L 205 135 L 206 134 L 207 133 L 208 132 L 209 131 L 210 130 L 211 129 L 212 128 L 213 127 L 214 126 L 215 125 L 216 124 L 217 123 L 218 122 L 219 121 L 220 120 L 221 119 L 222 118 L 223 117 L 224 116 L 225 115 L 226 114 L 227 113 L 228 112 L 229 111 L 230 110 L 231 109 L 232 108 L 233 107 L 234 106 L 235 105 L 236 104 Z M 29 84 L 28 85 L 27 86 L 26 87 L 25 88 L 24 89 L 23 90 L 22 91 L 21 92 L 20 93 L 19 94 L 18 95 L 17 96 L 16 97 L 15 98 L 14 99 L 13 100 L 12 101 L 11 102 L 10 103 L 9 104 L 8 105 L 7 106 L 6 107 L 5 108 L 4 109 L 3 110 L 2 111 L 1 112 L 1 113 L 1 114 L 1 115 L 1 116 L 1 117 L 1 118 L 1 119 L 1 120 L 1 121 L 1 122 L 1 123 L 1 124 L 1 125 L 1 126 L 1 127 L 1 128 L 1 129 L 1 130 L 1 131 L 1 132 L 1 133 L 1 134 L 1 135 L 1 136 L 1 137 L 1 138 L 1 139 L 1 140 L 1 141 L 1 142 L 1 143 L 1 144 L 1 145 L 1 146 L 1 147 L 1 148 L 1 149 L 1 150 L 1 151 L 1 152 L 1 153 L 1 154 L 1 155 L 1 156 L 1 157 L 1 158 L 1 159 L 1 160 L 1 161 L 1 162 L 1 163 L 1 164 L 1 165 L 1 166 L 1 167 L 1 168 L 1 169 L 1 170 L 1 171 L 1 172 L 1 173 L 1 174 L 1 175 L 1 176 L 1 177 L 1 178 L 1 179 L 1 180 L 1 181 L 1 182 L 1 183 L 1 184 L 1 185 L 1 186 L 1 187 L 1 188 L 1 189 L 1 190 L 1 191 L 2 192 L 3 193 L 4 194 L 5 195 L 6 196 L 7 197 L 8 198 L 9 199 L 10 200 L 11 201 L 12 202 L 13 203 L 14 204 L 15 205 L 16 206 L 17 207 L 18 208 L 19 209 L 20 210 L 21 211 L 22 212 L 23 213 L 24 214 L 25 215 L 25 216 L 26 216 L 27 217 L 28 218 L 29 219 L 30 219 L 31 219 L 32 219 L 33 219 L 34 219 L 35 219 L 36 219 L 37 219 L 38 219 L 39 219 L 40 219 L 41 219 L 42 219 L 43 219 L 44 219 L 45 219 L 46 219 L 47 219 L 48 219 L 49 219 L 50 219 L 51 219 L 52 219 L 53 219 L 54 219 L 55 219 L 56 219 L 57 219 L 58 219 L 59 219 L 60 219 L 61 219 L 62 219 L 63 219 L 64 219 L 65 219 L 66 219 L 67 219 L 68 219 L 69 219 L 70 219 L 71 219 L 72 219 L 73 218 L 74 217 L 75 216 L 76 215 L 77 214 L 78 213 L 79 212 L 80 211 L 81 210 L 82 209 L 83 208 L 84 207 L 85 206 L 86 205 L 87 204 L 88 203 L 89 202 L 90 201 L 91 200 L 92 199 L 93 198 L 94 197 L 95 196 L 96 195 L 97 194 L 98 193 L 99 192 L 100 191 L 101 190 L 102 189 L 103 188 L 104 187 L 105 186 L 106 185 L 107 184 L 108 183 L 109 182 L 110 181 L 111 180 L 112 179 L 113 178 L 114 177 L 115 176 L 116 175 L 117 174 L 118 173 L 119 172 L 120 171 L 121 170 L 122 169 L 123 168 L 124 167 L 125 166 L 126 165 L 127 164 L 128 163 L 129 162 L 130 161 L 131 160 L 132 159 L 133 158 L 134 157 L 135 156 L 135 155 L 136 154 L 136 153 L 136 152 L 136 151 L 136 150 L 136 149 L 135 148 L 135 147 L 134 146 L 133 145 L 132 144 L 131 143 L 130 142 L 129 141 L 128 140 L 127 139 L 126 138 L 125 137 L 124 136 L 123 135 L 122 134 L 121 133 L 120 132 L 119 131 L 118 130 L 117 129 L 116 128 L 115 127 L 114 126 L 113 125 L 112 124 L 111 123 L 110 122 L 109 121 L 108 120 L 107 119 L 106 118 L 105 117 L 104 116 L 103 115 L 102 114 L 101 113 L 100 112 L 99 111 L 98 110 L 97 109 L 96 108 L 95 107 L 94 106 L 93 105 L 92 104 L 91 103 L 90 102 L 89 101 L 88 100 L 87 99 L 86 98 L 85 97 L 84 96 L 83 95 L 82 94 L 81 93 L 80 92 L 79 91 L 78 90 L 77 89 L 76 88 L 75 87 L 74 86 L 73 85 L 72 84 L 71 84 L 70 84 L 69 84 L 68 84 L 67 84 L 66 84 L 65 84 L 64 84 L 63 84 L 62 84 L 61 84 L 60 84 L 59 84 L 58 84 L 57 84 L 56 84 L 55 84 L 54 84 L 53 84 L 52 84 L 51 84 L 50 84 L 49 84 L 48 84 L 47 84 L 46 84 L 45 84 L 44 84 L 43 84 L 42 84 L 41 84 L 40 84 L 39 84 L 38 84 L 37 84 L 36 84 L 35 84 L 34 84 L 33 84 L 32 84 L 31 84 L 30 84 Z M 34 103 L 35 102 L 36 102 L 37 102 L 38 102 L 39 102 L 40 102 L 41 102 L 42 102 L 43 102 L 44 102 L 45 102 L 46 102 L 47 102 L 48 102 L 49 102 L 50 102 L 51 102 L 52 102 L 53 102 L 54 102 L 55 102 L 56 102 L 57 102 L 58 102 L 59 102 L 60 102 L 61 102 L 62 102 L 63 102 L 64 102 L 65 102 L 66 103 L 67 104 L 68 105 L 69 106 L 70 107 L 71 108 L 72 109 L 73 110 L 74 111 L 75 112 L 76 113 L 77 114 L 78 115 L 79 116 L 80 117 L 81 118 L 82 119 L 83 120 L 84 121 L 85 122 L 86 123 L 87 124 L 88 125 L 89 126 L 90 127 L 91 128 L 92 129 L 93 130 L 94 131 L 95 132 L 96 133 L 97 134 L 98 135 L 99 136 L 100 137 L 101 138 L 102 139 L 103 140 L 104 141 L 105 142 L 106 143 L 107 144 L 108 145 L 109 146 L 110 147 L 111 148 L 112 149 L 113 150 L 114 151 L 114 152 L 113 153 L 112 154 L 111 155 L 110 156 L 109 157 L 108 158 L 107 159 L 106 160 L 105 161 L 104 162 L 103 163 L 102 164 L 101 165 L 100 166 L 99 167 L 98 168 L 97 169 L 96 170 L 95 171 L 94 172 L 93 173 L 92 174 L 91 175 L 90 176 L 89 177 L 88 178 L 87 179 L 86 180 L 85 181 L 84 182 L 83 183 L 82 184 L 81 185 L 80 186 L 79 187 L 78 188 L 77 189 L 76 190 L 75 191 L 74 192 L 73 193 L 72 194 L 71 195 L 70 196 L 69 197 L 68 198 L 67 199 L 66 200 L 65 201 L 64 201 L 63 201 L 62 201 L 61 201 L 60 201 L 59 201 L 58 201 L 57 201 L 56 201 L 55 201 L 54 201 L 53 201 L 52 201 L 51 201 L 50 201 L 49 201 L 48 201 L 47 201 L 46 201 L 45 201 L 44 201 L 43 201 L 42 201 L 41 201 L 40 201 L 39 201 L 38 201 L 37 201 L 36 201 L 35 200 L 34 199 L 33 198 L 32 198 L 31 197 L 31 196 L 30 196 L 29 195 L 29 194 L 28 193 L 27 192 L 26 191 L 25 190 L 24 189 L 23 188 L 22 187 L 21 186 L 20 185 L 19 184 L 18 183 L 18 182 L 18 181 L 18 180 L 18 179 L 18 178 L 18 177 L 18 176 L 18 175 L 18 174 L 18 173 L 18 172 L 18 171 L 18 170 L 18 169 L 18 168 L 18 167 L 18 166 L 18 165 L 18 164 L 18 163 L 18 162 L 18 161 L 18 160 L 18 159 L 18 158 L 18 157 L 18 156 L 18 155 L 18 154 L 18 153 L 18 152 L 18 151 L 18 150 L 18 149 L 18 148 L 18 147 L 18 146 L 18 145 L 18 144 L 18 143 L 18 142 L 18 141 L 18 140 L 18 139 L 18 138 L 18 137 L 18 136 L 18 135 L 18 134 L 18 133 L 18 132 L 18 131 L 18 130 L 18 129 L 18 128 L 18 127 L 18 126 L 18 125 L 18 124 L 18 123 L 18 122 L 18 121 L 18 120 L 18 119 L 19 118 L 20 118 L 21 117 L 22 116 L 23 115 L 24 114 L 25 113 L 26 112 L 26 111 L 27 110 L 28 110 L 29 109 L 29 108 L 30 107 L 31 107 L 31 106 L 32 105 L 33 105 L 34 104 Z M 112 1 L 111 2 L 110 3 L 109 3 L 109 4 L 108 5 L 107 6 L 106 7 L 105 8 L 104 9 L 103 10 L 102 11 L 101 12 L 100 13 L 99 14 L 98 15 L 97 16 L 96 17 L 95 18 L 94 19 L 93 20 L 92 21 L 91 22 L 90 23 L 89 24 L 88 25 L 87 26 L 86 27 L 85 28 L 84 29 L 84 30 L 84 31 L 84 32 L 84 33 L 84 34 L 84 35 L 84 36 L 84 37 L 84 38 L 84 39 L 84 40 L 84 41 L 84 42 L 84 43 L 84 44 L 84 45 L 84 46 L 84 47 L 84 48 L 84 49 L 84 50 L 84 51 L 84 52 L 84 53 L 84 54 L 84 55 L 84 56 L 84 57 L 84 58 L 84 59 L 84 60 L 84 61 L 84 62 L 84 63 L 84 64 L 84 65 L 84 66 L 84 67 L 84 68 L 84 69 L 84 70 L 84 71 L 84 72 L 85 73 L 86 74 L 87 75 L 88 76 L 89 77 L 90 78 L 91 79 L 92 80 L 93 81 L 94 82 L 95 83 L 96 84 L 97 85 L 98 86 L 99 87 L 100 88 L 101 89 L 102 90 L 103 91 L 104 92 L 105 93 L 106 94 L 107 95 L 108 96 L 109 97 L 110 98 L 111 99 L 112 100 L 113 101 L 114 102 L 115 103 L 116 104 L 117 105 L 118 106 L 119 107 L 120 108 L 121 109 L 122 110 L 123 111 L 124 112 L 125 113 L 126 114 L 127 115 L 128 116 L 129 117 L 130 118 L 131 119 L 132 120 L 133 121 L 134 122 L 135 123 L 136 124 L 137 125 L 138 126 L 139 127 L 140 128 L 141 129 L 142 130 L 143 131 L 144 132 L 145 133 L 146 134 L 147 135 L 148 135 L 149 136 L 150 136 L 151 136 L 152 136 L 153 136 L 154 136 L 155 135 L 156 135 L 157 134 L 158 133 L 159 132 L 160 131 L 161 130 L 162 129 L 163 128 L 164 127 L 165 126 L 166 125 L 167 124 L 168 123 L 169 122 L 170 121 L 171 120 L 172 119 L 173 118 L 174 117 L 175 116 L 176 115 L 177 114 L 178 113 L 179 112 L 180 111 L 181 110 L 182 109 L 183 108 L 184 107 L 185 106 L 186 105 L 187 104 L 188 103 L 189 102 L 190 101 L 191 100 L 192 99 L 193 98 L 194 97 L 195 96 L 196 95 L 197 94 L 198 93 L 199 92 L 200 91 L 201 90 L 202 89 L 203 88 L 204 87 L 205 86 L 206 85 L 207 84 L 208 83 L 209 82 L 210 81 L 211 80 L 212 79 L 213 78 L 214 77 L 215 76 L 216 75 L 217 74 L 218 73 L 219 72 L 219 71 L 219 70 L 219 69 L 219 68 L 219 67 L 219 66 L 219 65 L 219 64 L 219 63 L 219 62 L 219 61 L 219 60 L 219 59 L 219 58 L 219 57 L 219 56 L 219 55 L 219 54 L 219 53 L 219 52 L 219 51 L 219 50 L 219 49 L 219 48 L 219 47 L 219 46 L 219 45 L 219 44 L 219 43 L 219 42 L 219 41 L 219 40 L 219 39 L 219 38 L 219 37 L 219 36 L 219 35 L 219 34 L 219 33 L 219 32 L 219 31 L 219 30 L 219 29 L 218 28 L 217 27 L 216 26 L 216 25 L 215 25 L 214 24 L 213 23 L 212 22 L 211 21 L 210 20 L 209 19 L 208 18 L 207 17 L 206 16 L 205 15 L 204 14 L 203 13 L 202 12 L 201 11 L 200 10 L 199 9 L 198 8 L 197 7 L 196 6 L 195 5 L 194 4 L 194 3 L 193 3 L 192 2 L 191 1 L 190 1 L 189 1 L 188 1 L 187 1 L 186 1 L 185 1 L 184 1 L 183 1 L 182 1 L 181 1 L 180 1 L 179 1 L 178 1 L 177 1 L 176 1 L 175 1 L 174 1 L 173 1 L 172 1 L 171 1 L 170 1 L 169 1 L 168 1 L 167 1 L 166 1 L 165 1 L 164 1 L 163 1 L 162 1 L 161 1 L 160 1 L 159 1 L 158 1 L 157 1 L 156 1 L 155 1 L 154 1 L 153 1 L 152 1 L 151 1 L 150 1 L 149 1 L 148 1 L 147 1 L 146 1 L 145 1 L 144 1 L 143 1 L 142 1 L 141 1 L 140 1 L 139 1 L 138 1 L 137 1 L 136 1 L 135 1 L 134 1 L 133 1 L 132 1 L 131 1 L 130 1 L 129 1 L 128 1 L 127 1 L 126 1 L 125 1 L 124 1 L 123 1 L 122 1 L 121 1 L 120 1 L 119 1 L 118 1 L 117 1 L 116 1 L 115 1 L 114 1 L 113 1 Z M 118 19 L 119 18 L 120 18 L 121 18 L 122 18 L 123 18 L 124 18 L 125 18 L 126 18 L 127 18 L 128 18 L 129 18 L 130 18 L 131 18 L 132 18 L 133 18 L 134 18 L 135 18 L 136 18 L 137 18 L 138 18 L 139 18 L 140 18 L 141 18 L 142 18 L 143 18 L 144 18 L 145 18 L 146 18 L 147 18 L 148 18 L 149 18 L 150 18 L 151 18 L 152 18 L 153 18 L 154 18 L 155 18 L 156 18 L 157 18 L 158 18 L 159 18 L 160 18 L 161 18 L 162 18 L 163 18 L 164 18 L 165 18 L 166 18 L 167 18 L 168 18 L 169 18 L 170 18 L 171 18 L 172 18 L 173 18 L 174 18 L 175 18 L 176 18 L 177 18 L 178 18 L 179 18 L 180 18 L 181 18 L 182 18 L 183 18 L 184 18 L 185 19 L 185 20 L 186 21 L 187 21 L 188 22 L 188 23 L 189 23 L 190 24 L 190 25 L 191 26 L 192 26 L 193 27 L 193 28 L 194 29 L 195 30 L 196 31 L 197 31 L 198 32 L 198 33 L 199 34 L 200 35 L 201 36 L 201 37 L 201 38 L 201 39 L 201 40 L 201 41 L 201 42 L 201 43 L 201 44 L 201 45 L 201 46 L 201 47 L 201 48 L 201 49 L 201 50 L 201 51 L 201 52 L 201 53 L 201 54 L 201 55 L 201 56 L 201 57 L 201 58 L 201 59 L 201 60 L 201 61 L 201 62 L 201 63 L 201 64 L 201 65 L 200 66 L 199 67 L 198 68 L 197 69 L 196 70 L 195 71 L 194 72 L 193 73 L 192 74 L 191 75 L 190 76 L 189 77 L 188 78 L 187 79 L 186 80 L 185 81 L 184 82 L 183 83 L 182 84 L 181 85 L 180 86 L 179 87 L 178 88 L 177 89 L 176 90 L 175 91 L 174 92 L 173 93 L 172 94 L 171 95 L 170 96 L 169 97 L 168 98 L 167 99 L 166 100 L 165 101 L 164 102 L 163 103 L 162 104 L 161 105 L 160 106 L 159 107 L 158 108 L 157 109 L 156 110 L 155 111 L 154 112 L 153 113 L 152 114 L 151 114 L 150 113 L 149 112 L 148 111 L 147 110 L 146 109 L 145 108 L 144 107 L 143 106 L 142 105 L 141 104 L 140 103 L 139 102 L 138 101 L 137 100 L 136 99 L 135 98 L 134 97 L 133 96 L 132 95 L 131 94 L 130 93 L 129 92 L 128 91 L 127 90 L 126 89 L 125 88 L 124 87 L 123 86 L 122 85 L 121 84 L 120 83 L 119 82 L 118 81 L 117 80 L 116 79 L 115 78 L 114 77 L 113 76 L 112 75 L 111 74 L 110 73 L 109 72 L 108 71 L 107 70 L 106 69 L 105 68 L 104 67 L 103 66 L 102 65 L 102 64 L 102 63 L 102 62 L 102 61 L 102 60 L 102 59 L 102 58 L 102 57 L 102 56 L 102 55 L 102 54 L 102 53 L 102 52 L 102 51 L 102 50 L 102 49 L 102 48 L 102 47 L 102 46 L 102 45 L 102 44 L 102 43 L 102 42 L 102 41 L 102 40 L 102 39 L 102 38 L 102 37 L 102 36 L 103 35 L 104 34 L 105 33 L 105 32 L 106 31 L 107 31 L 108 30 L 109 29 L 110 28 L 111 27 L 112 26 L 113 25 L 113 24 L 114 23 L 115 23 L 116 22 L 116 21 L 117 20 L 118 20 Z" fill="#000" fill-rule="evenodd"/>
</svg>
